<?xml version="1.0" encoding="utf-8"?>
<svg xmlns="http://www.w3.org/2000/svg" viewBox="200 1.897 420 420" width="420px" height="420px"><g id="object-2" transform="matrix(1, 0, 0, 1, -5.684341886080802e-14, 0)"><rect style="fill-rule: evenodd; paint-order: fill; fill: rgb(249, 250, 251);" id="object-0" x="200" y="1.897" width="420" height="420" rx="60" ry="60"/><path d="M 299.998 43.147 L 317.405 43.147 L 317.405 363.24 L 502.594 363.24 L 502.594 314.887 L 366.241 314.887 L 366.241 268.47 L 383.647 268.47 L 383.647 297.48 L 520.002 297.48 L 520.002 380.647 L 299.998 380.647 L 299.998 43.147 Z M 332.877 43.147 L 517.584 43.147 L 517.584 125.829 L 401.538 125.829 L 401.538 108.422 L 500.177 108.422 L 500.177 60.553 L 350.284 60.553 L 350.284 200.292 L 462.945 200.292 L 462.945 217.699 L 332.877 217.699 L 332.877 43.147 Z M 332.877 233.171 L 479.869 233.171 L 479.869 184.818 L 366.24 184.818 L 366.24 75.06 L 483.252 75.06 L 483.252 92.467 L 383.647 92.467 L 383.647 167.413 L 497.275 167.413 L 497.275 250.58 L 350.285 250.58 L 350.285 330.844 L 485.672 330.844 L 485.672 348.252 L 332.877 348.252 L 332.877 233.171 Z" style="" id="object-1" fill="#264e98"/></g></svg>