<?xml version="1.0" encoding="utf-8"?>
<svg xmlns="http://www.w3.org/2000/svg" viewBox="0 85.377 240 41.189" width="240px" height="41.189px"><path d="M 0 85.495 L 2.115 85.495 L 2.115 124.391 L 24.618 124.391 L 24.618 118.516 L 8.049 118.516 L 8.049 112.876 L 10.164 112.876 L 10.164 116.401 L 26.734 116.401 L 26.734 126.507 L 0 126.507 L 0 85.495 Z M 3.995 85.495 L 26.441 85.495 L 26.441 95.542 L 12.339 95.542 L 12.339 93.427 L 24.325 93.427 L 24.325 87.609 L 6.11 87.609 L 6.11 104.59 L 19.801 104.59 L 19.801 106.705 L 3.995 106.705 L 3.995 85.495 Z M 3.995 108.586 L 21.857 108.586 L 21.857 102.71 L 8.048 102.71 L 8.048 89.373 L 22.267 89.373 L 22.267 91.488 L 10.163 91.488 L 10.163 100.595 L 23.971 100.595 L 23.971 110.701 L 6.11 110.701 L 6.11 120.454 L 22.562 120.454 L 22.562 122.569 L 3.995 122.569 L 3.995 108.586 Z M 46.248 116.811 C 49.127 118.103 51.653 118.75 53.769 118.75 C 54.827 118.75 55.473 118.692 55.768 118.515 C 57.12 118.164 58.06 117.399 58.648 116.223 L 58.706 116.106 C 58.999 115.578 59.118 114.931 59.118 114.107 C 59.118 113.695 59.001 113.226 58.767 112.638 L 58.649 112.403 C 57.885 110.816 56.182 109.759 53.068 108.76 L 52.48 108.584 L 52.304 108.526 C 47.545 107.116 44.488 104.883 43.021 101.768 C 42.434 100.593 42.14 99.3 42.14 97.89 C 42.14 96.421 42.433 95.01 43.021 93.543 L 43.138 93.308 C 44.489 90.605 46.663 88.842 49.542 87.961 C 51.598 87.668 52.774 87.491 53.067 87.491 C 57.062 87.491 61.704 89.135 66.933 92.368 L 68.049 90.546 C 62.348 87.082 57.413 85.378 53.123 85.378 C 51.419 85.378 50.009 85.554 49.01 85.965 C 45.543 86.905 42.957 89.021 41.254 92.37 L 41.078 92.782 C 40.373 94.487 40.02 96.191 40.02 97.894 C 40.02 99.716 40.371 101.302 41.078 102.712 C 42.9 106.355 46.425 108.942 51.713 110.528 L 52.417 110.762 C 54.826 111.526 56.235 112.349 56.764 113.29 L 56.822 113.407 C 56.939 113.583 56.998 113.818 56.998 114.111 C 56.998 114.64 56.94 114.993 56.764 115.286 C 56.353 116.226 55.355 116.696 53.768 116.696 C 51.241 116.696 47.599 115.404 44.779 113.581 L 43.898 113.053 L 38.727 121.398 L 39.608 121.926 C 43.779 124.747 49.303 126.509 53.769 126.509 C 55.238 126.509 56.589 126.333 57.823 125.981 C 61.289 124.982 63.875 122.808 65.579 119.517 L 65.814 119.106 C 66.519 117.285 66.872 115.581 66.872 113.994 C 66.872 112.584 66.401 110.821 65.52 108.647 C 63.933 105.474 60.585 103.066 55.356 101.42 L 54.534 101.185 C 52.89 100.657 51.772 100.127 51.244 99.716 C 50.54 99.128 50.128 98.717 49.952 98.481 L 49.835 97.835 C 49.835 97.248 49.952 96.719 50.248 96.307 C 50.718 95.427 51.188 95.191 53.068 95.191 C 55.595 95.191 59.237 96.483 62.057 98.306 L 62.938 98.834 L 66.111 93.782 L 65.171 93.254 C 61.587 90.903 56.71 89.259 53.125 89.259 C 51.538 89.259 50.54 89.376 50.011 89.671 C 47.601 90.376 45.781 91.903 44.606 94.196 C 44.078 95.195 43.842 96.37 43.842 97.838 C 43.842 98.954 44.077 100.012 44.546 101.011 C 45.781 103.656 48.541 105.594 52.831 106.887 L 53.595 107.122 L 55.182 107.709 C 56.063 108.061 57.004 108.532 58.061 109.119 C 59.941 110.235 60.881 111.821 60.881 113.937 C 60.881 115.085 60.599 116.214 60.059 117.227 C 58.825 119.401 56.71 120.517 53.772 120.517 C 51.773 120.517 48.954 119.753 45.311 118.285 L 44.312 119.989 L 44.254 120.105 C 47.603 121.809 50.776 122.633 53.831 122.633 C 55.535 122.633 57.121 122.281 58.532 121.575 C 61.294 120.223 62.998 117.404 62.998 113.878 C 62.998 108.297 58.709 106.651 54.185 105.065 L 53.422 104.83 C 49.719 103.714 47.428 102.186 46.489 100.129 C 46.138 99.424 45.961 98.66 45.961 97.778 C 45.961 96.662 46.137 95.779 46.548 95.016 C 47.488 93.311 48.839 92.195 50.602 91.667 L 52.953 91.373 C 56.068 91.373 59.475 92.431 63.177 94.488 L 62.236 95.957 C 58.418 94.077 55.362 93.137 53.129 93.137 C 52.013 93.137 51.366 93.195 51.073 93.371 C 49.781 93.723 48.841 94.487 48.193 95.722 L 48.135 95.839 C 47.842 96.367 47.723 97.074 47.723 97.954 C 47.723 98.6 47.84 99.07 48.017 99.364 C 48.78 100.951 50.779 102.243 53.951 103.182 L 54.714 103.417 L 56.183 103.887 C 56.359 103.946 57.299 104.358 59.003 105.179 C 61.295 106.471 62.94 108.117 63.88 110.056 C 64.467 111.231 64.761 112.524 64.761 113.935 C 64.761 115.639 64.467 117.108 63.821 118.342 L 63.704 118.577 C 62.352 121.279 60.179 123.043 57.299 123.923 C 55.243 124.217 54.067 124.394 53.774 124.394 C 50.779 124.394 46.9 123.278 43.315 121.574 L 41.67 120.693 L 44.609 115.934 L 46.248 116.811 Z M 85.094 122.863 L 87.68 122.863 L 89.736 117.927 L 105.072 117.986 L 108.831 126.506 L 119.643 126.448 L 101.136 85.377 L 97.377 85.377 L 78.983 126.449 L 90.442 126.449 L 92.441 121.748 L 104.133 121.748 L 103.252 119.749 L 91.146 119.749 L 89.266 124.391 L 82.274 124.391 L 98.549 87.377 L 99.959 87.377 L 116.293 124.393 L 110.064 124.393 L 106.305 115.992 L 88.088 115.992 L 85.094 122.863 Z M 92.086 112.522 L 99.254 95.423 L 111.3 122.804 L 113.709 122.804 L 99.255 90.607 L 88.679 114.346 L 105.718 114.346 L 99.254 100.067 L 94.789 110.819 L 97.081 110.819 L 99.256 105.473 L 102.488 112.524 L 92.086 112.522 Z M 133.987 124.45 L 133.987 85.378 L 131.872 85.378 L 131.872 126.566 L 142.155 126.508 L 142.155 109.703 L 158.254 89.315 L 155.551 89.315 L 139.98 108.939 L 139.98 124.451 L 133.987 124.45 Z M 139.921 99.008 L 142.096 96.306 L 142.096 85.378 L 135.867 85.378 L 135.867 104.238 L 137.982 101.535 L 137.982 87.552 L 139.92 87.552 L 139.921 99.008 Z M 166.304 85.378 L 153.319 85.378 L 135.868 107.765 L 135.868 122.924 L 137.983 122.924 L 137.983 108.469 L 154.317 87.551 L 161.955 87.551 L 145.385 108.645 L 155.961 122.924 L 158.605 122.924 L 148.087 108.645 L 166.304 85.378 Z M 162.133 124.452 L 154.671 124.452 L 144.153 110.233 L 144.153 113.758 L 153.612 126.508 L 166.362 126.508 L 151.968 107.176 L 150.616 108.88 L 162.133 124.452 Z M 181.354 124.452 L 181.354 85.378 L 179.239 85.378 L 179.239 126.566 L 189.522 126.508 L 189.522 109.703 L 205.622 89.316 L 202.92 89.316 L 187.35 108.94 L 187.35 124.452 L 181.354 124.452 Z M 187.288 99.011 L 189.463 96.309 L 189.463 85.378 L 183.233 85.378 L 183.233 104.238 L 185.348 101.535 L 185.348 87.552 L 187.287 87.552 L 187.288 99.011 Z M 213.669 85.378 L 200.684 85.378 L 183.231 107.765 L 183.231 122.924 L 185.346 122.924 L 185.346 108.469 L 201.68 87.551 L 209.318 87.551 L 192.75 108.645 L 203.325 122.924 L 205.969 122.924 L 195.451 108.645 L 213.669 85.378 Z M 209.498 124.452 L 202.036 124.452 L 191.518 110.233 L 191.518 113.758 L 200.978 126.508 L 213.728 126.508 L 199.334 107.177 L 197.982 108.881 L 209.498 124.452 Z M 229.835 85.378 L 236.004 85.378 L 236.004 122.57 L 233.889 122.57 L 233.889 87.493 L 231.95 87.493 L 231.95 124.393 L 237.884 124.393 L 237.884 85.378 L 240 85.378 L 240 126.508 L 229.836 126.508 L 229.835 85.378 Z" id="path-1" style="fill:#638c72"/></svg>