<?xml version="1.0" encoding="utf-8"?>
<svg xmlns="http://www.w3.org/2000/svg" fill="#638c72" viewBox="0 -0.001 240 41.189" width="240px" height="41.189px"><path fill="currentColor" d="M0 0.117h2.115v38.896h22.503v-5.875H8.049v-5.64h2.115v3.525h16.57v10.106H0zm3.995 0h22.446v10.047H12.339V8.049h11.986V2.231H6.11v16.981h13.691v2.115H3.995zm0 23.091h17.862v-5.876H8.048V3.995h14.219V6.11H10.163v9.107h13.808v10.106H6.11v9.753h16.452v2.115H3.995zm42.253 8.225c2.879 1.292 5.405 1.939 7.521 1.939 1.058 0 1.704 -0.058 1.999 -0.235 1.352 -0.351 2.292 -1.116 2.88 -2.292l0.058 -0.117c0.293 -0.528 0.412 -1.175 0.412 -1.999 0 -0.412 -0.117 -0.881 -0.351 -1.469l-0.118 -0.235c-0.764 -1.587 -2.467 -2.644 -5.581 -3.643l-0.588 -0.176 -0.176 -0.058c-4.759 -1.41 -7.816 -3.643 -9.283 -6.758q-0.881 -1.763 -0.881 -3.878c0 -1.469 0.293 -2.88 0.881 -4.347l0.117 -0.235c1.351 -2.703 3.525 -4.466 6.404 -5.347 2.056 -0.293 3.232 -0.47 3.525 -0.47 3.995 0 8.637 1.644 13.866 4.877l1.116 -1.822C62.348 1.704 57.413 0 53.123 0c-1.704 0 -3.114 0.176 -4.113 0.587 -3.467 0.94 -6.053 3.056 -7.756 6.405l-0.176 0.412q-1.058 2.557 -1.058 5.112c0 1.822 0.351 3.408 1.058 4.818 1.822 3.643 5.347 6.23 10.635 7.816l0.704 0.234c2.409 0.764 3.818 1.587 4.347 2.528l0.058 0.117q0.176 0.264 0.176 0.704c0 0.529 -0.058 0.882 -0.234 1.175q-0.616 1.41 -2.996 1.41c-2.527 0 -6.169 -1.292 -8.989 -3.115l-0.881 -0.528 -5.171 8.345 0.881 0.528c4.171 2.821 9.695 4.583 14.161 4.583q2.203 0 4.054 -0.528c3.466 -0.999 6.052 -3.173 7.756 -6.464l0.235 -0.411q1.058 -2.732 1.058 -5.112c0 -1.41 -0.471 -3.173 -1.352 -5.347 -1.587 -3.173 -4.935 -5.581 -10.164 -7.227l-0.822 -0.235c-1.644 -0.528 -2.762 -1.058 -3.29 -1.469 -0.704 -0.588 -1.116 -0.999 -1.292 -1.235l-0.117 -0.646c0 -0.587 0.117 -1.116 0.413 -1.528 0.47 -0.88 0.94 -1.116 2.82 -1.116 2.527 0 6.169 1.292 8.989 3.115l0.881 0.528 3.173 -5.052 -0.94 -0.528c-3.584 -2.351 -8.461 -3.995 -12.046 -3.995 -1.587 0 -2.585 0.117 -3.114 0.412 -2.41 0.705 -4.23 2.232 -5.405 4.525 -0.528 0.999 -0.764 2.174 -0.764 3.642q0 1.674 0.704 3.173c1.235 2.645 3.995 4.583 8.285 5.876l0.764 0.235 1.587 0.587c0.881 0.352 1.822 0.823 2.879 1.41 1.88 1.116 2.82 2.702 2.82 4.818a7 7 0 0 1 -0.822 3.29c-1.234 2.174 -3.349 3.29 -6.287 3.29 -1.999 0 -4.818 -0.764 -8.461 -2.232l-0.999 1.704 -0.058 0.116c3.349 1.704 6.522 2.528 9.577 2.528 1.704 0 3.29 -0.352 4.701 -1.058 2.762 -1.352 4.466 -4.171 4.466 -7.697 0 -5.581 -4.289 -7.227 -8.813 -8.813l-0.763 -0.235c-3.703 -1.116 -5.994 -2.644 -6.933 -4.701 -0.351 -0.705 -0.528 -1.469 -0.528 -2.351 0 -1.116 0.176 -1.999 0.587 -2.762q1.41 -2.557 4.054 -3.349l2.351 -0.294c3.115 0 6.522 1.058 10.224 3.115l-0.941 1.469c-3.818 -1.88 -6.874 -2.82 -9.107 -2.82 -1.116 0 -1.763 0.058 -2.056 0.234 -1.292 0.352 -2.232 1.116 -2.88 2.351l-0.058 0.117c-0.293 0.528 -0.412 1.235 -0.412 2.115 0 0.646 0.117 1.116 0.294 1.41 0.763 1.587 2.762 2.879 5.934 3.818l0.763 0.235 1.469 0.47c0.176 0.059 1.116 0.471 2.82 1.292 2.292 1.292 3.937 2.938 4.877 4.877q0.881 1.763 0.881 3.879c0 1.704 -0.294 3.173 -0.94 4.407l-0.117 0.235c-1.352 2.702 -3.525 4.466 -6.405 5.346 -2.056 0.294 -3.232 0.471 -3.525 0.471 -2.995 0 -6.874 -1.116 -10.459 -2.82l-1.645 -0.881 2.939 -4.759zm38.846 6.052h2.586l2.056 -4.936 15.336 0.059 3.759 8.52 10.812 -0.058L101.136 -0.001h-3.759L78.983 41.071h11.459l1.999 -4.701h11.692l-0.881 -1.999H91.146l-1.88 4.642h-6.992L98.549 1.999h1.41l16.334 37.016h-6.229l-3.759 -8.401H88.088zm6.992 -10.341 7.168 -17.099L111.3 37.426h2.409L99.255 5.229 88.679 28.968h17.039l-6.464 -14.279 -4.465 10.752h2.292l2.175 -5.346 3.232 7.051zm41.901 11.928V0h-2.115v41.188l10.283 -0.058V24.325l16.099 -20.388h-2.703L139.98 23.561v15.512zm5.934 -25.442 2.175 -2.702V0h-6.229v18.86l2.115 -2.703V2.174h1.938zM166.304 0h-12.985l-17.451 22.387v15.159h2.115V23.091l16.334 -20.918h7.638l-16.57 21.094 10.576 14.279h2.644l-10.518 -14.279zm-4.171 39.074h-7.462l-10.518 -14.219v3.525l9.459 12.75h12.75l-14.394 -19.332 -1.352 1.704zm19.221 0V0h-2.115v41.188l10.283 -0.058V24.325l16.1 -20.387h-2.702l-15.57 19.624v15.512zm5.934 -25.441 2.175 -2.702V0h-6.23v18.86l2.115 -2.703V2.174h1.939zM213.669 0h-12.985l-17.453 22.387v15.159h2.115V23.091L201.68 2.173h7.638L192.75 23.267l10.575 14.279h2.644l-10.518 -14.279zm-4.171 39.074h-7.462l-10.518 -14.219v3.525l9.46 12.75h12.75l-14.394 -19.331 -1.352 1.704zM229.835 0h6.169v37.192h-2.115V2.115h-1.939v36.9h5.934V0H240v41.13h-10.164z" id="object-0" transform="matrix(1, 0, 0, 1, 2.842170943040401e-14, 0)"/></svg>